<?xml version="1.0" standalone="no"?>
<!DOCTYPE svg PUBLIC "-//W3C//DTD SVG 20010904//EN"
 "http://www.w3.org/TR/2001/REC-SVG-20010904/DTD/svg10.dtd">
<svg version="1.0" xmlns="http://www.w3.org/2000/svg"
 width="192.000000pt" height="192.000000pt" viewBox="0 0 192.000000 192.000000"
 preserveAspectRatio="xMidYMid meet">
<metadata>
Created by potrace 1.14, written by Peter Selinger 2001-2017
</metadata>
<g transform="translate(0.000000,192.000000) scale(0.100000,-0.100000)"
fill="#000000" stroke="none">
<path d="M856 1863 c-32 -105 -63 -177 -82 -188 -30 -16 -35 -27 -28 -66 4
-30 -4 -56 -52 -155 -164 -340 -364 -632 -618 -901 -43 -46 -76 -87 -74 -93 4
-12 151 134 236 235 54 63 171 221 261 351 19 27 50 78 69 114 19 36 46 83 61
105 14 22 27 45 28 50 5 30 125 264 137 268 10 4 111 -93 293 -279 216 -221
279 -291 281 -314 2 -16 10 -34 18 -40 8 -7 14 -22 15 -34 0 -21 0 -21 9 2 14
32 32 27 76 -21 21 -23 103 -109 180 -190 105 -109 141 -153 137 -166 -6 -24
33 -65 54 -56 10 3 26 -4 40 -16 l23 -22 0 21 c0 11 -4 24 -10 27 -5 3 -10 19
-10 35 0 30 -22 50 -56 50 -23 0 -54 29 -48 45 3 7 -1 12 -8 12 -42 -5 -304
352 -447 608 -124 222 -272 566 -263 613 2 6 -2 12 -7 12 -5 0 -11 10 -13 22
-2 12 -9 23 -17 26 -10 3 -12 -2 -7 -21 4 -19 2 -27 -11 -30 -14 -4 -14 -5 3
-6 15 -1 23 -9 27 -30 9 -44 92 -250 153 -380 56 -117 62 -137 42 -125 -7 4
-8 3 -4 -5 4 -6 12 -9 17 -6 5 4 12 -2 16 -12 4 -10 33 -62 65 -116 32 -54 58
-107 58 -118 0 -10 5 -18 11 -16 6 1 14 -4 16 -10 3 -8 -5 -13 -20 -13 -20 0
-66 42 -206 187 -118 123 -176 190 -168 195 8 5 5 8 -8 8 -12 0 -55 35 -107
88 -110 111 -114 130 -64 270 49 139 50 142 33 142 -9 0 -21 -22 -31 -57z
m633 -905 c46 -75 46 -74 8 -39 -20 19 -37 41 -37 48 0 20 14 16 29 -9z"/>
<path d="M1150 1376 c0 -2 7 -7 16 -10 8 -3 12 -2 9 4 -6 10 -25 14 -25 6z"/>
<path d="M1851 1074 c0 -11 3 -14 6 -6 3 7 2 16 -1 19 -3 4 -6 -2 -5 -13z"/>
<path d="M1851 874 c0 -11 3 -14 6 -6 3 7 2 16 -1 19 -3 4 -6 -2 -5 -13z"/>
<path d="M1841 784 c0 -11 3 -14 6 -6 3 7 2 16 -1 19 -3 4 -6 -2 -5 -13z"/>
<path d="M91 734 c0 -11 3 -14 6 -6 3 7 2 16 -1 19 -3 4 -6 -2 -5 -13z"/>
<path d="M101 694 c0 -11 3 -14 6 -6 3 7 2 16 -1 19 -3 4 -6 -2 -5 -13z"/>
<path d="M740 528 c-238 -23 -305 -31 -399 -49 -57 -11 -110 -18 -117 -15 -8
3 -14 2 -14 -3 0 -5 -47 -21 -105 -36 -68 -18 -105 -33 -105 -42 0 -13 35 -10
70 7 8 4 48 15 89 24 60 14 76 14 89 4 12 -10 14 -10 8 0 -11 19 27 29 226 57
420 60 881 38 1268 -59 74 -19 143 -37 153 -41 12 -5 17 -2 17 8 0 10 -31 23
-102 43 -57 15 -104 31 -106 35 -2 4 -9 6 -16 3 -6 -2 -59 5 -117 16 -221 43
-638 67 -839 48z"/>
<path d="M1228 113 c7 -3 16 -2 19 1 4 3 -2 6 -13 5 -11 0 -14 -3 -6 -6z"/>
</g>
</svg>
